<svg width="46" height="20" viewBox="0 0 46 20" fill="none" xmlns="http://www.w3.org/2000/svg">
<path d="M38.7561 11.6332C38.3211 11.6332 38.0545 11.6332 37.7879 11.6332C26.0293 11.6332 14.2706 11.6332 2.49793 11.6332C2.11907 11.6332 1.74021 11.6332 1.38942 11.556C0.519447 11.3887 -0.0137615 10.7324 0.000270288 9.93457C0.0143021 9.16245 0.547511 8.54476 1.40345 8.37747C1.74021 8.31312 2.10504 8.31312 2.4418 8.31312C14.2285 8.31312 26.0152 8.31312 37.8019 8.31312C38.0686 8.31312 38.3352 8.31312 38.7701 8.31312C38.4895 8.04288 38.3492 7.88846 38.1948 7.73403C36.4128 6.09972 34.6167 4.46541 32.8347 2.83109C32.2874 2.32922 32.1191 1.72439 32.3576 1.05523C32.5821 0.437533 33.1013 0 33.8029 0C34.294 0 34.9254 0.141555 35.2622 0.437533C38.3632 3.20428 41.4362 5.99677 44.4811 8.815C45.2107 9.48417 45.2107 10.4493 44.4811 11.1313C41.4222 13.9367 38.3632 16.7421 35.2762 19.5217C34.5325 20.1908 33.4521 20.1394 32.7645 19.4831C32.091 18.8396 32.091 17.8359 32.8066 17.1667C34.6027 15.5067 36.4128 13.8595 38.2229 12.2123C38.3492 12.0579 38.4895 11.9035 38.7561 11.6332Z" fill="#435CBC"/>
</svg>
