<svg width="25" height="19" viewBox="0 0 25 19" fill="none" xmlns="http://www.w3.org/2000/svg">
<path d="M25 2.23529C24.0798 2.62647 23.088 2.88353 22.0602 3.00647C23.1119 2.41412 23.9245 1.47529 24.3069 0.346471C23.315 0.905294 22.2156 1.29647 21.0564 1.52C20.1123 0.558824 18.7859 0 17.2801 0C14.4718 0 12.1773 2.14588 12.1773 4.79471C12.1773 5.17471 12.2251 5.54353 12.3088 5.89C8.05449 5.68882 4.26625 3.77765 1.74474 0.882941C1.30258 1.58706 1.05163 2.41412 1.05163 3.28588C1.05163 4.95118 1.9479 6.42647 3.33413 7.26471C2.48566 7.26471 1.69694 7.04118 1.00382 6.70588V6.73941C1.00382 9.06412 2.77247 11.0088 5.11472 11.4447C4.36272 11.6372 3.57325 11.664 2.80832 11.5229C3.1329 12.4757 3.76857 13.3094 4.62598 13.9068C5.48339 14.5042 6.51942 14.8353 7.58843 14.8535C5.77633 16.1952 3.53011 16.9204 1.21893 16.91C0.81262 16.91 0.40631 16.8876 0 16.8429C2.27055 18.2065 4.97132 19 7.86329 19C17.2801 19 22.4546 11.6906 22.4546 5.35353C22.4546 5.14118 22.4546 4.94 22.4426 4.72765C23.4465 4.05706 24.3069 3.20765 25 2.23529Z" fill="white"/>
</svg>
