<svg width="16" height="16" viewBox="0 0 16 16" fill="none" xmlns="http://www.w3.org/2000/svg">
<path fill-rule="evenodd" clip-rule="evenodd" d="M8 14.8C8.7384 14.8 9.61184 14.2949 10.3651 13.0394C10.5854 12.6723 10.7841 12.2566 10.9545 11.8H5.04551C5.2159 12.2566 5.41459 12.6723 5.63488 13.0394C6.38815 14.2949 7.2616 14.8 8 14.8ZM4.68734 10.6C4.50386 9.80472 4.4 8.92856 4.4 8C4.4 7.07144 4.50386 6.19529 4.68734 5.4H11.3126C11.4962 6.19529 11.6 7.07144 11.6 8C11.6 8.92856 11.4962 9.80472 11.3126 10.6H4.68734ZM12.225 11.8C11.9512 12.6438 11.589 13.3964 11.1592 14.0231C12.1588 13.4978 13.0116 12.7309 13.64 11.8H12.225ZM14.2852 10.6H12.5408C12.7088 9.7848 12.8 8.91016 12.8 8C12.8 7.08984 12.7088 6.21517 12.5408 5.4H14.2852C14.617 6.20098 14.8 7.07912 14.8 8C14.8 8.92088 14.617 9.79904 14.2852 10.6ZM3.45919 10.6H1.71476C1.38306 9.79904 1.2 8.92088 1.2 8C1.2 7.07912 1.38306 6.20098 1.71476 5.4H3.45919C3.2912 6.21517 3.2 7.08984 3.2 8C3.2 8.91016 3.2912 9.7848 3.45919 10.6ZM2.36002 11.8H3.77502C4.04882 12.6438 4.41098 13.3964 4.84082 14.0231C3.84123 13.4978 2.98843 12.7309 2.36002 11.8ZM5.04551 4.2H10.9545C10.7841 3.74346 10.5854 3.32768 10.3651 2.96054C9.61184 1.70509 8.7384 1.2 8 1.2C7.2616 1.2 6.38815 1.70509 5.63488 2.96054C5.41459 3.32768 5.2159 3.74346 5.04551 4.2ZM12.225 4.2H13.64C13.0116 3.26914 12.1588 2.50222 11.1592 1.97685C11.589 2.60362 11.9512 3.35616 12.225 4.2ZM4.84082 1.97685C4.41098 2.60363 4.04882 3.35616 3.77502 4.2H2.36002C2.98843 3.26914 3.84123 2.50222 4.84082 1.97685ZM8 0C12.4182 0 16 3.58172 16 8C16 12.4182 12.4182 16 8 16C3.58172 16 0 12.4182 0 8C0 3.58172 3.58172 0 8 0Z" fill="black"/>
</svg>
