<svg width="39" height="30" viewBox="0 0 39 30" fill="none" xmlns="http://www.w3.org/2000/svg">
<path d="M38.2611 9.90625C38.5582 9.66406 39 9.89063 39 10.2734V26.25C39 28.3203 37.3623 30 35.3438 30H3.65625C1.6377 30 0 28.3203 0 26.25V10.2813C0 9.89063 0.43418 9.67187 0.738867 9.91406C2.44512 11.2734 4.70742 13 12.477 18.7891C14.0842 19.9922 16.7959 22.5234 19.5 22.5078C22.2193 22.5312 24.9844 19.9453 26.5307 18.7891C34.3002 13 36.5549 11.2656 38.2611 9.90625ZM19.5 20C21.2672 20.0312 23.8113 17.7188 25.091 16.7656C35.199 9.24219 35.9684 8.58594 38.2992 6.71094C38.741 6.35937 39 5.8125 39 5.23438V3.75C39 1.67969 37.3623 0 35.3438 0H3.65625C1.6377 0 0 1.67969 0 3.75V5.23438C0 5.8125 0.258984 6.35156 0.700781 6.71094C3.03164 8.57812 3.80098 9.24219 13.909 16.7656C15.1887 17.7188 17.7328 20.0312 19.5 20Z" fill="white"/>
</svg>
