<svg width="28" height="33" viewBox="0 0 28 33" fill="none" xmlns="http://www.w3.org/2000/svg">
<path d="M14 0C17.713 0 21.274 1.49005 23.8995 4.14235C26.525 6.79465 28 10.3919 28 14.1429C28 19.998 23.5822 26.1329 14.9333 32.6857C14.6641 32.8897 14.3366 33 14 33C13.6634 33 13.3359 32.8897 13.0667 32.6857C4.41778 26.1329 0 19.998 0 14.1429C0 10.3919 1.475 6.79465 4.1005 4.14235C6.72601 1.49005 10.287 0 14 0ZM14 9.42857C12.7623 9.42857 11.5753 9.92525 10.7002 10.8094C9.825 11.6935 9.33333 12.8926 9.33333 14.1429C9.33333 15.3932 9.825 16.5923 10.7002 17.4764C11.5753 18.3605 12.7623 18.8571 14 18.8571C15.2377 18.8571 16.4247 18.3605 17.2998 17.4764C18.175 16.5923 18.6667 15.3932 18.6667 14.1429C18.6667 12.8926 18.175 11.6935 17.2998 10.8094C16.4247 9.92525 15.2377 9.42857 14 9.42857Z" fill="#435CBC"/>
</svg>
