<svg width="33" height="33" viewBox="0 0 33 33" fill="none" xmlns="http://www.w3.org/2000/svg">
<path d="M32.0589 23.319L24.84 20.2252C24.5316 20.0937 24.1889 20.066 23.8634 20.1463C23.5379 20.2265 23.2473 20.4102 23.0353 20.6699L19.8384 24.5758C14.8211 22.2102 10.7833 18.1725 8.41772 13.1552L12.3237 9.95824C12.5838 9.74663 12.768 9.456 12.8482 9.13036C12.9285 8.80472 12.9005 8.46181 12.7684 8.15353L9.67458 0.934647C9.52963 0.602326 9.27327 0.330998 8.9497 0.167447C8.62613 0.00389636 8.25563 -0.0416249 7.90209 0.0387327L1.19885 1.58564C0.857995 1.66435 0.553884 1.85626 0.336152 2.13007C0.118419 2.40387 -7.85188e-05 2.7434 3.90348e-08 3.09322C3.90348e-08 19.6257 13.4 33 29.9068 33C30.2567 33.0002 30.5964 32.8818 30.8703 32.664C31.1442 32.4463 31.3363 32.1421 31.415 31.8011L32.9619 25.0979C33.0417 24.7426 32.9953 24.3707 32.8304 24.046C32.6656 23.7213 32.3928 23.4642 32.0589 23.319Z" fill="#435CBC"/>
</svg>
